<svg width="10" height="18" viewBox="0 0 10 18" fill="none" xmlns="http://www.w3.org/2000/svg">
<path d="M9.62343 0.00364879L7.22488 0C4.5302 0 2.78878 1.69395 2.78878 4.31579V6.30565H0.377148C0.168755 6.30565 0 6.46583 0 6.66342V9.54651C0 9.74409 0.168947 9.90409 0.377148 9.90409H2.78878V17.179C2.78878 17.3766 2.95753 17.5366 3.16593 17.5366H6.31242C6.52081 17.5366 6.68957 17.3764 6.68957 17.179V9.90409H9.50932C9.71772 9.90409 9.88647 9.74409 9.88647 9.54651L9.88763 6.66342C9.88763 6.56855 9.84779 6.47769 9.77718 6.41056C9.70656 6.34342 9.61034 6.30565 9.51029 6.30565H6.68957V4.61882C6.68957 3.80806 6.89334 3.39647 8.00727 3.39647L9.62304 3.39593C9.83125 3.39593 10 3.23574 10 3.03835V0.36123C10 0.164013 9.83144 0.00401367 9.62343 0.00364879Z" fill="white"/>
<path d="M9.62343 0.00364879L7.22488 0C4.5302 0 2.78878 1.69395 2.78878 4.31579V6.30565H0.377148C0.168755 6.30565 0 6.46583 0 6.66342V9.54651C0 9.74409 0.168947 9.90409 0.377148 9.90409H2.78878V17.179C2.78878 17.3766 2.95753 17.5366 3.16593 17.5366H6.31242C6.52081 17.5366 6.68957 17.3764 6.68957 17.179V9.90409H9.50932C9.71772 9.90409 9.88647 9.74409 9.88647 9.54651L9.88763 6.66342C9.88763 6.56855 9.84779 6.47769 9.77718 6.41056C9.70656 6.34342 9.61034 6.30565 9.51029 6.30565H6.68957V4.61882C6.68957 3.80806 6.89334 3.39647 8.00727 3.39647L9.62304 3.39593C9.83125 3.39593 10 3.23574 10 3.03835V0.36123C10 0.164013 9.83144 0.00401367 9.62343 0.00364879Z" fill="#2F80ED"/>
</svg>
