<svg width="16" height="16" viewBox="0 0 16 16" fill="none" xmlns="http://www.w3.org/2000/svg">
<path d="M15.1929 7.8113L15.2083 7.7959L15.1376 7.7252L8.47091 1.05853L8.4707 1.05832C8.36869 0.956917 8.2307 0.9 8.08687 0.9C7.94304 0.9 7.80505 0.956917 7.70304 1.05832L7.70283 1.05853L1.03616 7.7252L1.03595 7.72499L1.03092 7.73086C0.941721 7.83502 0.895113 7.96899 0.900406 8.10601C0.905699 8.24304 0.962502 8.37302 1.05946 8.46998C1.15643 8.56694 1.28641 8.62375 1.42343 8.62904C1.56045 8.63433 1.69443 8.58772 1.79858 8.49853L1.79878 8.49876L1.80425 8.49329L8.08462 2.21291L14.365 8.4977L14.3648 8.49792L14.3707 8.50297C14.4749 8.59217 14.6088 8.63878 14.7459 8.63348C14.8829 8.62819 15.0129 8.57139 15.1098 8.47443C15.2068 8.37746 15.2636 8.24748 15.2689 8.11046C15.273 8.00484 15.2462 7.90104 15.1929 7.8113Z" fill="white" stroke="white" stroke-width="0.2"/>
<path d="M6.76663 15.1111V10.7666H9.23329V15.1111V15.2111H9.33329H12.4444C12.7067 15.2111 12.9582 15.1069 13.1437 14.9214C13.3291 14.736 13.4333 14.4845 13.4333 14.2222V8.7822V8.74078L13.404 8.71149L12.5151 7.8226L12.3444 7.65189V7.89331V14.1222H10.3222V9.77775V9.67775H10.2222H5.77774H5.67774V9.77775V14.1222H3.65551V7.99998V7.75856L3.4848 7.92927L2.59592 8.81816L2.56663 8.84744V8.88887V14.2222C2.56663 14.4845 2.67081 14.736 2.85626 14.9214C3.04172 15.1069 3.29325 15.2111 3.55551 15.2111H6.66663H6.76663V15.1111Z" fill="white" stroke="white" stroke-width="0.2"/>
</svg>
