<svg width="25" height="24" viewBox="0 0 25 24" fill="none" xmlns="http://www.w3.org/2000/svg">
<path fill-rule="evenodd" clip-rule="evenodd" d="M12.9387 4.42226L12.947 4.41817L12.9558 4.42244L17.4031 6.94059L18.9388 7.81375V18.2085C18.9388 18.7674 18.9373 19.0732 18.9183 19.293L18.916 19.3178L18.8896 19.32C18.6568 19.3379 18.3327 19.3394 17.7405 19.3394H8.15358C7.56133 19.3394 7.23727 19.3379 7.00441 19.32L6.97808 19.3178L6.97579 19.293C6.95677 19.0732 6.95521 18.7674 6.95521 18.2085V7.81377L8.48529 6.94382L12.9387 4.42226ZM7.45622 5.32845L2.44691 8.16479C1.97397 8.43258 1.82062 9.01146 2.10438 9.45776C2.38814 9.90406 3.00156 10.0488 3.47449 9.781L4.95794 8.94105V18.2085C4.95794 19.2641 4.95794 19.7919 5.17563 20.1951C5.36712 20.5497 5.67266 20.838 6.04847 21.0188C6.47571 21.2242 7.035 21.2242 8.15358 21.2242H17.7405C18.8591 21.2242 19.4183 21.2242 19.8456 21.0188C20.2214 20.838 20.5269 20.5497 20.7184 20.1951C20.9361 19.7919 20.9361 19.2641 20.9361 18.2085V8.94102L22.4196 9.781C22.8926 10.0488 23.506 9.90406 23.7897 9.45776C24.0735 9.01146 23.9201 8.43258 23.4472 8.16479L18.4321 5.32519L14.5962 3.14421C14.3173 2.98564 14.1033 2.86396 13.9219 2.77246C13.8796 2.75012 13.8366 2.72933 13.7931 2.71011C13.6421 2.6406 13.5113 2.59433 13.3768 2.56638C13.0937 2.5075 12.8004 2.5075 12.5172 2.56638C12.3824 2.59441 12.2513 2.64084 12.0998 2.71066C12.0571 2.72956 12.0149 2.74997 11.9733 2.77189C11.7917 2.86346 11.5774 2.98531 11.2979 3.14421L7.45622 5.32845Z" fill="#333333"/>
<path fill-rule="evenodd" clip-rule="evenodd" d="M13.9457 19.3394V15.5698C13.9457 15.0493 13.4986 14.6274 12.9471 14.6274C12.3955 14.6274 11.9484 15.0493 11.9484 15.5698V19.3394H13.9457ZM12.9471 12.7426C11.2925 12.7426 9.95117 14.0083 9.95117 15.5698V21.2242H15.943V15.5698C15.943 14.0083 14.6017 12.7426 12.9471 12.7426Z" fill="#333333"/>
</svg>
