<svg width="64" height="19" viewBox="0 0 64 19" fill="none" xmlns="http://www.w3.org/2000/svg">
<path d="M0.24 18C3.336 18.336 6.864 17.184 6.864 11.184V4.896H10.8V18H14.64V1.2H3.024V11.328C3.024 14.136 1.968 14.664 0.24 14.4V18ZM25.5341 18.336C30.3581 18.336 34.2701 14.544 34.2701 9.6C34.2701 4.656 30.3581 0.863999 25.5341 0.863999C20.7101 0.863999 16.7981 4.656 16.7981 9.6C16.7981 14.544 20.7101 18.336 25.5341 18.336ZM25.5341 14.592C22.7981 14.592 20.6381 12.6 20.6381 9.6C20.6381 6.6 22.7981 4.608 25.5341 4.608C28.2701 4.608 30.4301 6.6 30.4301 9.6C30.4301 12.6 28.2701 14.592 25.5341 14.592ZM46.0322 1.2H36.4322V18H40.2722V4.896H46.0322V1.2ZM54.7607 18.336C59.5847 18.336 63.4967 14.544 63.4967 9.6C63.4967 4.656 59.5847 0.863999 54.7607 0.863999C49.9367 0.863999 46.0247 4.656 46.0247 9.6C46.0247 14.544 49.9367 18.336 54.7607 18.336ZM54.7607 14.592C52.0247 14.592 49.8647 12.6 49.8647 9.6C49.8647 6.6 52.0247 4.608 54.7607 4.608C57.4967 4.608 59.6567 6.6 59.6567 9.6C59.6567 12.6 57.4967 14.592 54.7607 14.592Z" fill="black"/>
</svg>
