<svg width="173" height="40" viewBox="0 0 173 40" fill="none" xmlns="http://www.w3.org/2000/svg">
<path d="M65.6025 19.5467H71.0093V28.3104C69.7735 29.1767 68.3523 29.8416 66.7457 30.3049C65.1391 30.7683 63.5325 31 61.9259 31C59.6602 31 57.621 30.5366 55.8085 29.6099C53.9959 28.663 52.5747 27.3535 51.5448 25.6813C50.5149 24.0092 50 22.1154 50 20C50 17.8846 50.5149 15.9908 51.5448 14.3187C52.5747 12.6465 54.0062 11.3471 55.8394 10.4203C57.6725 9.47344 59.7426 9 62.0495 9C64.068 9 65.8806 9.33242 67.4872 9.99725C69.0938 10.6621 70.4326 11.619 71.5037 12.8681L67.6108 16.3132C66.1484 14.7418 64.3976 13.956 62.3584 13.956C60.5047 13.956 59.0114 14.5101 57.8785 15.6181C56.7456 16.706 56.1792 18.1667 56.1792 20C56.1792 21.1685 56.4367 22.2161 56.9516 23.1429C57.4666 24.0495 58.1875 24.7647 59.1143 25.2885C60.0412 25.7921 61.102 26.044 62.2966 26.044C63.4707 26.044 64.5727 25.8123 65.6025 25.3489V19.5467Z" fill="#364A7E"/>
<path d="M89.378 26.467H80.2328L78.5335 30.5769H72.2925L81.8394 9.42308H87.8641L97.4419 30.5769H91.0773L89.378 26.467ZM87.5861 22.0549L84.8054 15.2857L82.0248 22.0549H87.5861Z" fill="#364A7E"/>
<path d="M117.467 25.8324V30.5769H98.0948V26.8297L109.001 14.1676H98.3729V9.42308H117.003V13.1703L106.097 25.8324H117.467Z" fill="#364A7E"/>
<path d="M130.871 31C128.585 31 126.525 30.5266 124.692 29.5797C122.879 28.6328 121.448 27.3233 120.397 25.6511C119.367 23.9789 118.852 22.0952 118.852 20C118.852 17.9048 119.367 16.0211 120.397 14.3489C121.448 12.6767 122.879 11.3672 124.692 10.4203C126.525 9.47344 128.585 9 130.871 9C133.157 9 135.207 9.47344 137.019 10.4203C138.852 11.3672 140.284 12.6767 141.314 14.3489C142.364 16.0211 142.89 17.9048 142.89 20C142.89 22.0952 142.364 23.9789 141.314 25.6511C140.284 27.3233 138.852 28.6328 137.019 29.5797C135.207 30.5266 133.157 31 130.871 31ZM130.871 26.044C131.963 26.044 132.951 25.7921 133.837 25.2885C134.723 24.7848 135.423 24.0797 135.938 23.1731C136.453 22.2463 136.71 21.1886 136.71 20C136.71 18.8114 136.453 17.7637 135.938 16.8571C135.423 15.9304 134.723 15.2152 133.837 14.7115C132.951 14.2079 131.963 13.956 130.871 13.956C129.779 13.956 128.791 14.2079 127.905 14.7115C127.019 15.2152 126.319 15.9304 125.804 16.8571C125.289 17.7637 125.032 18.8114 125.032 20C125.032 21.1886 125.289 22.2463 125.804 23.1731C126.319 24.0797 127.019 24.7848 127.905 25.2885C128.791 25.7921 129.779 26.044 130.871 26.044Z" fill="#364A7E"/>
<path d="M146.094 9.42308H152.211V30.5769H146.094V9.42308Z" fill="#364A7E"/>
<path d="M156.563 9.42308H162.681V25.8324H173V30.5769H156.563V9.42308Z" fill="#364A7E"/>
<path d="M22.5728 19.2811H25.9294V24.8434C25.1622 25.3933 24.2799 25.8152 23.2825 26.1093C22.2851 26.4034 21.2877 26.5505 20.2904 26.5505C18.8838 26.5505 17.6179 26.2564 16.4926 25.6682C15.3674 25.0672 14.4851 24.2361 13.8457 23.1747C13.2064 22.1134 12.8867 20.9115 12.8867 19.5688C12.8867 18.2262 13.2064 17.0242 13.8457 15.9629C14.4851 14.9016 15.3738 14.0768 16.5118 13.4886C17.6499 12.8877 18.9349 12.5872 20.3671 12.5872C21.6202 12.5872 22.7454 12.7981 23.7428 13.2201C24.7402 13.6421 25.5714 14.2495 26.2363 15.0422L23.8195 17.2288C22.9117 16.2314 21.8248 15.7327 20.5589 15.7327C19.4081 15.7327 18.481 16.0844 17.7777 16.7877C17.0744 17.4782 16.7228 18.4052 16.7228 19.5688C16.7228 20.3105 16.8826 20.9754 17.2023 21.5636C17.522 22.139 17.9695 22.5929 18.5449 22.9254C19.1203 23.2451 19.7789 23.4049 20.5205 23.4049C21.2494 23.4049 21.9335 23.2579 22.5728 22.9638V19.2811Z" fill="#36497E"/>
<path fill-rule="evenodd" clip-rule="evenodd" d="M33.5657 5.54434H5.54434V33.5657H33.5657V5.54434ZM0 0V39.11H39.11V0H0Z" fill="#36497E"/>
</svg>
