<svg width="108" height="108" viewBox="0 0 108 108" fill="none" xmlns="http://www.w3.org/2000/svg">
<path d="M15.186 20.3976L14.8469 20.5129V20.871V61.0146C14.8469 83.1335 32.3668 101.08 54.0001 101.08C75.6333 101.08 93.1533 83.1335 93.1533 61.0146V20.8926V20.5333L92.8128 20.4187L53.9274 7.33451L53.7671 7.28057L53.607 7.33501L15.186 20.3976ZM72.878 35.6547L72.8804 35.6518C73.1479 35.3392 73.4756 35.0836 73.8441 34.9003C74.2125 34.7171 74.614 34.6099 75.0248 34.5852C75.4355 34.5605 75.847 34.6188 76.2347 34.7566C76.6222 34.8943 76.978 35.1086 77.2809 35.3867C77.9056 35.9622 78.2818 36.7582 78.3299 37.6062C78.378 38.4538 78.0944 39.287 77.5391 39.9292C77.5389 39.9295 77.5387 39.9297 77.5385 39.9299L51.5814 69.8127L51.5787 69.8159C51.2944 70.1487 50.9421 70.4167 50.5456 70.602C50.149 70.7872 49.7173 70.8853 49.2797 70.8897C48.842 70.8941 48.4084 70.8047 48.0082 70.6275C47.608 70.4503 47.2504 70.1893 46.9595 69.8623L46.9568 69.8593L29.1919 50.2045C29.1917 50.2043 29.1916 50.2042 29.1914 50.204C28.6241 49.5721 28.3249 48.7441 28.3572 47.8955C28.3896 47.0466 28.7511 46.2436 29.3652 45.6566C29.6624 45.3731 30.0136 45.1522 30.398 45.0072C30.7824 44.862 31.1922 44.7957 31.6028 44.8122C32.0134 44.8286 32.4165 44.9275 32.7881 45.103C33.1597 45.2784 33.4922 45.5268 33.7659 45.8334L33.7679 45.8356L48.8231 62.4946L49.2015 62.9133L49.5716 62.4873L72.878 35.6547ZM53.7579 0.527808L99.4001 15.879V61.0146C99.4001 86.6965 79.0606 107.5 54.0001 107.5C28.9396 107.5 8.6001 86.6965 8.6001 61.0146V15.8777L53.7579 0.527808Z" fill="#364A7E" stroke="white"/>
</svg>
