<svg width="61" height="61" viewBox="0 0 61 61" fill="none" xmlns="http://www.w3.org/2000/svg">
<g clip-path="url(#clip0_281_1187)">
<path d="M53.1208 10.9063C52.2256 8.45664 50.6 6.3409 48.4636 4.84497C46.3272 3.34904 43.7831 2.54504 41.175 2.54163H19.825C17.217 2.54504 14.6728 3.34904 12.5364 4.84497C10.4 6.3409 8.77438 8.45664 7.87918 10.9063L1.01668 29.7832C0.341737 31.6424 -0.00235036 33.6054 1.20827e-05 35.5833V38.125C0.00454725 40.0892 0.466236 42.0253 1.34853 43.7802C2.23083 45.5351 3.50951 47.0605 5.08335 48.2357C5.08335 48.2561 5.08335 48.2713 5.08335 48.2916V53.375C5.08335 55.3972 5.88669 57.3367 7.31666 58.7667C8.74662 60.1966 10.6861 61 12.7083 61C14.7306 61 16.6701 60.1966 18.1 58.7667C19.53 57.3367 20.3333 55.3972 20.3333 53.375V50.8333H40.6667V53.375C40.6667 55.3972 41.47 57.3367 42.9 58.7667C44.33 60.1966 46.2694 61 48.2917 61C50.314 61 52.2534 60.1966 53.6834 58.7667C55.1133 57.3367 55.9167 55.3972 55.9167 53.375V48.2916C55.9167 48.2713 55.9167 48.2561 55.9167 48.2357C57.4905 47.0605 58.7692 45.5351 59.6515 43.7802C60.5338 42.0253 60.9955 40.0892 61 38.125V35.5833C61.0026 33.6062 60.6585 31.644 59.9834 29.7858L53.1208 10.9063ZM12.6626 12.6448C13.2 11.1761 14.1747 9.9075 15.4554 9.00993C16.7361 8.11237 18.2611 7.629 19.825 7.62496H41.175C42.7398 7.62796 44.2659 8.11085 45.5476 9.00848C46.8293 9.90611 47.8048 11.1753 48.3425 12.6448L53.9037 27.9583H7.0938L12.6626 12.6448ZM15.25 53.375C15.25 54.0491 14.9822 54.6955 14.5056 55.1722C14.0289 55.6489 13.3824 55.9166 12.7083 55.9166C12.0343 55.9166 11.3878 55.6489 10.9111 55.1722C10.4345 54.6955 10.1667 54.0491 10.1667 53.375V50.5791C11.0032 50.749 11.8547 50.8342 12.7083 50.8333H15.25V53.375ZM50.8334 53.375C50.8334 54.0491 50.5656 54.6955 50.0889 55.1722C49.6123 55.6489 48.9658 55.9166 48.2917 55.9166C47.6176 55.9166 46.9711 55.6489 46.4944 55.1722C46.0178 54.6955 45.75 54.0491 45.75 53.375V50.8333H48.2917C49.1453 50.8342 49.9968 50.749 50.8334 50.5791V53.375ZM55.9167 38.125C55.9167 40.1472 55.1133 42.0867 53.6834 43.5167C52.2534 44.9466 50.314 45.75 48.2917 45.75H12.7083C10.6861 45.75 8.74662 44.9466 7.31666 43.5167C5.88669 42.0867 5.08335 40.1472 5.08335 38.125V35.5833C5.0937 34.7275 5.19682 33.8752 5.39089 33.0416H10.1667V35.5833C10.1667 36.2574 10.4345 36.9039 10.9111 37.3805C11.3878 37.8572 12.0343 38.125 12.7083 38.125C13.3824 38.125 14.0289 37.8572 14.5056 37.3805C14.9822 36.9039 15.25 36.2574 15.25 35.5833V33.0416H45.75V35.5833C45.75 36.2574 46.0178 36.9039 46.4944 37.3805C46.9711 37.8572 47.6176 38.125 48.2917 38.125C48.9658 38.125 49.6123 37.8572 50.0889 37.3805C50.5656 36.9039 50.8334 36.2574 50.8334 35.5833V33.0416H55.6091C55.8033 33.8752 55.9065 34.7274 55.9167 35.5833V38.125Z" fill="#364A7E"/>
</g>
<defs>
<clipPath id="clip0_281_1187">
<rect width="61" height="61" fill="white"/>
</clipPath>
</defs>
</svg>
