<svg width="51" height="52" viewBox="0 0 51 52" fill="none" xmlns="http://www.w3.org/2000/svg">
<path d="M32.1802 48.7907V35.545C32.1802 34.9595 31.9455 34.398 31.5278 33.984C31.1101 33.57 30.5436 33.3375 29.9529 33.3375H21.0438C20.4531 33.3375 19.8866 33.57 19.4689 33.984C19.0512 34.398 18.8166 34.9595 18.8166 35.545V48.7907C18.8166 49.3761 18.5819 49.9376 18.1643 50.3516C17.7467 50.7656 17.1802 50.9982 16.5896 50.9982L3.22755 51C2.93504 51 2.64538 50.9429 2.37512 50.832C2.10487 50.7211 1.8593 50.5585 1.65245 50.3535C1.4456 50.1485 1.28152 49.9051 1.16957 49.6373C1.05762 49.3694 1 49.0823 1 48.7924V23.2784C1 22.9708 1.06484 22.6667 1.19036 22.3854C1.31588 22.1041 1.49932 21.852 1.72891 21.6451L24.0001 1.57423C24.4101 1.20476 24.9443 1.00002 25.4984 1C26.0525 0.999982 26.5867 1.20468 26.9967 1.57413L49.271 21.645C49.5006 21.852 49.6841 22.1041 49.8096 22.3854C49.9352 22.6667 50 22.9709 50 23.2785V48.7924C50 49.0824 49.9424 49.3694 49.8304 49.6373C49.7185 49.9051 49.5544 50.1485 49.3475 50.3535C49.1407 50.5585 48.8951 50.7211 48.6249 50.832C48.3546 50.943 48.065 51 47.7724 51L34.4072 50.9983C33.8165 50.9982 33.2501 50.7656 32.8324 50.3516C32.4148 49.9376 32.1802 49.3761 32.1802 48.7907V48.7907Z" stroke="#2F80ED" stroke-width="2" stroke-linecap="round" stroke-linejoin="round"/>
</svg>
