<svg width="61" height="61" viewBox="0 0 61 61" fill="none" xmlns="http://www.w3.org/2000/svg">
<g clip-path="url(#clip0_556_1920)">
<path d="M53.1208 10.9056C52.2256 8.45603 50.6 6.34029 48.4636 4.84436C46.3272 3.34843 43.7831 2.54443 41.175 2.54102H19.825C17.217 2.54443 14.6728 3.34843 12.5364 4.84436C10.4 6.34029 8.77438 8.45603 7.87918 10.9056L1.01668 29.7826C0.341737 31.6418 -0.00235036 33.6048 1.20827e-05 35.5827V38.1244C0.00454725 40.0885 0.466236 42.0247 1.34853 43.7796C2.23083 45.5345 3.50951 47.0599 5.08335 48.2351C5.08335 48.2554 5.08335 48.2707 5.08335 48.291V53.3744C5.08335 55.3966 5.88669 57.3361 7.31666 58.766C8.74662 60.196 10.6861 60.9994 12.7083 60.9994C14.7306 60.9994 16.6701 60.196 18.1 58.766C19.53 57.3361 20.3333 55.3966 20.3333 53.3744V50.8327H40.6667V53.3744C40.6667 55.3966 41.47 57.3361 42.9 58.766C44.33 60.196 46.2694 60.9994 48.2917 60.9994C50.314 60.9994 52.2534 60.196 53.6834 58.766C55.1133 57.3361 55.9167 55.3966 55.9167 53.3744V48.291C55.9167 48.2707 55.9167 48.2554 55.9167 48.2351C57.4905 47.0599 58.7692 45.5345 59.6515 43.7796C60.5338 42.0247 60.9955 40.0885 61 38.1244V35.5827C61.0026 33.6056 60.6585 31.6434 59.9834 29.7851L53.1208 10.9056ZM12.6626 12.6441C13.2 11.1755 14.1747 9.90689 15.4554 9.00932C16.7361 8.11176 18.2611 7.62839 19.825 7.62435H41.175C42.7398 7.62735 44.2659 8.11024 45.5476 9.00787C46.8293 9.9055 47.8048 11.1747 48.3425 12.6441L53.9037 27.9577H7.0938L12.6626 12.6441ZM15.25 53.3744C15.25 54.0484 14.9822 54.6949 14.5056 55.1716C14.0289 55.6482 13.3824 55.916 12.7083 55.916C12.0343 55.916 11.3878 55.6482 10.9111 55.1716C10.4345 54.6949 10.1667 54.0484 10.1667 53.3744V50.5785C11.0032 50.7484 11.8547 50.8335 12.7083 50.8327H15.25V53.3744ZM50.8334 53.3744C50.8334 54.0484 50.5656 54.6949 50.0889 55.1716C49.6123 55.6482 48.9658 55.916 48.2917 55.916C47.6176 55.916 46.9711 55.6482 46.4944 55.1716C46.0178 54.6949 45.75 54.0484 45.75 53.3744V50.8327H48.2917C49.1453 50.8335 49.9968 50.7484 50.8334 50.5785V53.3744ZM55.9167 38.1244C55.9167 40.1466 55.1133 42.0861 53.6834 43.516C52.2534 44.946 50.314 45.7494 48.2917 45.7494H12.7083C10.6861 45.7494 8.74662 44.946 7.31666 43.516C5.88669 42.0861 5.08335 40.1466 5.08335 38.1244V35.5827C5.0937 34.7268 5.19682 33.8746 5.39089 33.041H10.1667V35.5827C10.1667 36.2568 10.4345 36.9033 10.9111 37.3799C11.3878 37.8566 12.0343 38.1244 12.7083 38.1244C13.3824 38.1244 14.0289 37.8566 14.5056 37.3799C14.9822 36.9033 15.25 36.2568 15.25 35.5827V33.041H45.75V35.5827C45.75 36.2568 46.0178 36.9033 46.4944 37.3799C46.9711 37.8566 47.6176 38.1244 48.2917 38.1244C48.9658 38.1244 49.6123 37.8566 50.0889 37.3799C50.5656 36.9033 50.8334 36.2568 50.8334 35.5827V33.041H55.6091C55.8033 33.8746 55.9065 34.7268 55.9167 35.5827V38.1244Z" fill="#F47222"/>
</g>
<defs>
<clipPath id="clip0_556_1920">
<rect width="61" height="61" fill="white"/>
</clipPath>
</defs>
</svg>
