<svg width="69" height="53" viewBox="0 0 69 53" fill="none" xmlns="http://www.w3.org/2000/svg">
<path d="M11 18V10.7143C11 8.1379 11.9904 5.66703 13.7532 3.84525C15.516 2.02347 17.907 1 20.4 1H48.6C51.093 1 53.484 2.02347 55.2468 3.84525C57.0096 5.66703 58 8.1379 58 10.7143V18" stroke="#2F80ED" stroke-width="2" stroke-linecap="round" stroke-linejoin="round"/>
<path d="M20.1429 39.8571V27.7143C20.1429 25.793 19.5815 23.9148 18.5298 22.3173C17.4781 20.7198 15.9832 19.4747 14.2343 18.7395C12.4853 18.0042 10.5608 17.8118 8.70414 18.1867C6.84746 18.5615 5.142 19.4867 3.80341 20.8453C2.46482 22.2038 1.55323 23.9347 1.18392 25.8191C0.814601 27.7035 1.00415 29.6567 1.72859 31.4318C2.45302 33.2068 3.67982 34.724 5.25383 35.7914C6.82784 36.8588 8.67838 37.4286 10.5714 37.4286V49.5714C10.5714 50.2155 10.8235 50.8332 11.2723 51.2887C11.721 51.7441 12.3297 52 12.9643 52H56.0357C56.6703 52 57.279 51.7441 57.7277 51.2887C58.1765 50.8332 58.4286 50.2155 58.4286 49.5714V37.4286C60.3216 37.4286 62.1722 36.8588 63.7462 35.7914C65.3202 34.724 66.547 33.2068 67.2714 31.4318C67.9959 29.6567 68.1854 27.7035 67.8161 25.8191C67.4468 23.9347 66.5352 22.2038 65.1966 20.8453C63.858 19.4867 62.1525 18.5615 60.2959 18.1867C58.4392 17.8118 56.5147 18.0042 54.7657 18.7395C53.0168 19.4747 51.5219 20.7198 50.4702 22.3173C49.4185 23.9148 48.8571 25.793 48.8571 27.7143V39.8571" stroke="#2F80ED" stroke-width="2" stroke-linecap="round" stroke-linejoin="round"/>
</svg>
