<svg width="57" height="57" viewBox="0 0 57 57" fill="none" xmlns="http://www.w3.org/2000/svg">
<g clip-path="url(#clip0_556_1923)">
<path d="M21.375 33.25H35.625C36.2549 33.25 36.859 32.9998 37.3044 32.5544C37.7498 32.109 38 31.5049 38 30.875C38 30.2451 37.7498 29.641 37.3044 29.1956C36.859 28.7502 36.2549 28.5 35.625 28.5H21.375C20.7451 28.5 20.141 28.7502 19.6956 29.1956C19.2502 29.641 19 30.2451 19 30.875C19 31.5049 19.2502 32.109 19.6956 32.5544C20.141 32.9998 20.7451 33.25 21.375 33.25Z" fill="#F47222"/>
<path d="M45.125 0H11.875C8.72671 0.00377116 5.70845 1.25609 3.48227 3.48227C1.25609 5.70845 0.00377116 8.72671 0 11.875L0 14.25C0.000690668 15.2516 0.212564 16.2419 0.621797 17.1561C1.03103 18.0703 1.62842 18.888 2.375 19.5557V45.125C2.37877 48.2733 3.63109 51.2916 5.85727 53.5177C8.08345 55.7439 11.1017 56.9962 14.25 57H42.75C45.8983 56.9962 48.9166 55.7439 51.1427 53.5177C53.3689 51.2916 54.6212 48.2733 54.625 45.125V19.5557C55.3716 18.888 55.969 18.0703 56.3782 17.1561C56.7874 16.2419 56.9993 15.2516 57 14.25V11.875C56.9962 8.72671 55.7439 5.70845 53.5177 3.48227C51.2916 1.25609 48.2733 0.00377116 45.125 0V0ZM4.75 11.875C4.75 9.98533 5.50067 8.17306 6.83686 6.83686C8.17306 5.50067 9.98533 4.75 11.875 4.75H45.125C47.0147 4.75 48.8269 5.50067 50.1631 6.83686C51.4993 8.17306 52.25 9.98533 52.25 11.875V14.25C52.25 14.8799 51.9998 15.484 51.5544 15.9294C51.109 16.3748 50.5049 16.625 49.875 16.625H7.125C6.49511 16.625 5.89102 16.3748 5.44562 15.9294C5.00022 15.484 4.75 14.8799 4.75 14.25V11.875ZM49.875 45.125C49.875 47.0147 49.1243 48.8269 47.7881 50.1631C46.4519 51.4993 44.6397 52.25 42.75 52.25H14.25C12.3603 52.25 10.5481 51.4993 9.21186 50.1631C7.87567 48.8269 7.125 47.0147 7.125 45.125V21.375H49.875V45.125Z" fill="#F47222"/>
</g>
<defs>
<clipPath id="clip0_556_1923">
<rect width="57" height="57" fill="white"/>
</clipPath>
</defs>
</svg>
