<svg width="186" height="22" viewBox="0 0 186 22" fill="none" xmlns="http://www.w3.org/2000/svg">
<path d="M5.40316 0.158527V7.55645H4.66155V0.856045H0.847554V7.55645H0.105944V0.158527H5.40316Z" fill="#36497E"/>
<path d="M9.44129 2.1454C10.2253 2.1454 10.8574 2.4237 11.3377 2.9803C11.825 3.52986 12.0687 4.18159 12.0687 4.93547C12.0687 5.01297 12.0616 5.12218 12.0475 5.26309H7.39656C7.46719 5.79856 7.69321 6.22482 8.07461 6.54187C8.46307 6.85188 8.93982 7.00689 9.50485 7.00689C9.90744 7.00689 10.2535 6.92586 10.5431 6.76381C10.8398 6.59472 11.0622 6.3763 11.2106 6.10857L11.825 6.46789C11.592 6.84131 11.2741 7.13723 10.8715 7.35565C10.4689 7.57406 10.0099 7.68327 9.49426 7.68327C8.66083 7.68327 7.98279 7.42258 7.46013 6.9012C6.93747 6.37982 6.67614 5.71753 6.67614 4.91433C6.67614 4.12522 6.93394 3.46645 7.44953 2.93803C7.96513 2.40961 8.62905 2.1454 9.44129 2.1454ZM9.44129 2.82178C8.89038 2.82178 8.42775 2.98735 8.05342 3.3185C7.68614 3.64259 7.46719 4.06533 7.39656 4.58671H11.3483C11.2777 4.0301 11.0622 3.5968 10.702 3.28679C10.3418 2.97678 9.92157 2.82178 9.44129 2.82178Z" fill="#36497E"/>
<path d="M16.0203 2.1454C16.776 2.1454 17.4187 2.41313 17.9484 2.9486C18.4852 3.48407 18.7536 4.13931 18.7536 4.91433C18.7536 5.68935 18.4852 6.3446 17.9484 6.88006C17.4187 7.41553 16.776 7.68327 16.0203 7.68327C15.0809 7.68327 14.3675 7.29576 13.8802 6.52074V9.67014H13.181V2.27222H13.8802V3.30793C14.3675 2.53291 15.0809 2.1454 16.0203 2.1454ZM14.4841 6.40448C14.8867 6.80609 15.3811 7.00689 15.9673 7.00689C16.5535 7.00689 17.0479 6.80609 17.4505 6.40448C17.8531 5.99584 18.0544 5.49912 18.0544 4.91433C18.0544 4.32954 17.8531 3.83635 17.4505 3.43475C17.0479 3.0261 16.5535 2.82178 15.9673 2.82178C15.3811 2.82178 14.8867 3.0261 14.4841 3.43475C14.0815 3.83635 13.8802 4.32954 13.8802 4.91433C13.8802 5.49912 14.0815 5.99584 14.4841 6.40448Z" fill="#36497E"/>
<path d="M23.2853 4.84035C23.8645 5.05172 24.154 5.46389 24.154 6.07686C24.154 6.50665 24.0093 6.86245 23.7197 7.14428C23.4372 7.41905 23.0275 7.55645 22.4907 7.55645H19.9163V2.27222H22.2788C22.7944 2.27222 23.1935 2.40609 23.476 2.67382C23.7585 2.93451 23.8998 3.2727 23.8998 3.68839C23.8998 4.21681 23.695 4.6008 23.2853 4.84035ZM22.2788 2.9486H20.6155V4.555H22.2788C22.8933 4.555 23.2005 4.28022 23.2005 3.73066C23.2005 3.48407 23.1193 3.29384 22.9569 3.15997C22.8015 3.01906 22.5755 2.9486 22.2788 2.9486ZM22.4907 6.88006C22.8015 6.88006 23.0381 6.80609 23.2005 6.65813C23.3701 6.51017 23.4548 6.30232 23.4548 6.03459C23.4548 5.78799 23.3701 5.59424 23.2005 5.45332C23.0381 5.30536 22.8015 5.23139 22.4907 5.23139H20.6155V6.88006H22.4907Z" fill="#36497E"/>
<path d="M29.7691 2.27222H30.4683V7.55645H29.7691V6.52074C29.2817 7.29576 28.5684 7.68327 27.629 7.68327C26.8733 7.68327 26.227 7.41553 25.6902 6.88006C25.1605 6.3446 24.8957 5.68935 24.8957 4.91433C24.8957 4.13931 25.1605 3.48407 25.6902 2.9486C26.227 2.41313 26.8733 2.1454 27.629 2.1454C28.5684 2.1454 29.2817 2.53291 29.7691 3.30793V2.27222ZM26.1988 6.40448C26.6014 6.80609 27.0958 7.00689 27.682 7.00689C28.2682 7.00689 28.7626 6.80609 29.1652 6.40448C29.5678 5.99584 29.7691 5.49912 29.7691 4.91433C29.7691 4.32954 29.5678 3.83635 29.1652 3.43475C28.7626 3.0261 28.2682 2.82178 27.682 2.82178C27.0958 2.82178 26.6014 3.0261 26.1988 3.43475C25.7962 3.83635 25.5949 4.32954 25.5949 4.91433C25.5949 5.49912 25.7962 5.99584 26.1988 6.40448Z" fill="#36497E"/>
<path d="M35.7628 2.27222V7.55645H35.0636V5.5273H34.1524L32.5209 7.55645H31.631L33.3049 5.50617C32.8811 5.44275 32.5315 5.26661 32.256 4.97774C31.9806 4.68887 31.8429 4.33307 31.8429 3.91033C31.8429 3.43123 32.0124 3.04019 32.3514 2.73723C32.6975 2.42722 33.1177 2.27222 33.6121 2.27222H35.7628ZM33.6121 4.87206H35.0636V2.9486H33.6121C33.3155 2.9486 33.0612 3.03667 32.8493 3.21281C32.6445 3.38895 32.5421 3.62146 32.5421 3.91033C32.5421 4.1992 32.6445 4.43171 32.8493 4.60785C33.0612 4.78399 33.3155 4.87206 33.6121 4.87206Z" fill="#36497E"/>
<path d="M42.2466 7.68327C41.4838 7.68327 40.8481 7.43315 40.3396 6.93291C39.8311 6.42562 39.5768 5.77038 39.5768 4.96717C39.5768 4.06533 39.711 3.37486 39.9794 2.89576C40.2478 2.40961 40.7916 1.96926 41.6109 1.5747C41.7663 1.4972 41.9711 1.4056 42.2254 1.29992C42.4867 1.19424 42.681 1.10969 42.8081 1.04628C42.9423 0.982866 43.0871 0.901842 43.2425 0.803202C43.3978 0.697518 43.5144 0.581265 43.5921 0.454443C43.6698 0.327622 43.7192 0.176141 43.7404 0L44.2913 0.317053C44.2631 0.486149 44.2066 0.644676 44.1218 0.792634C44.037 0.940593 43.9488 1.06037 43.8569 1.15196C43.7722 1.24355 43.6345 1.34572 43.4438 1.45845C43.2601 1.56413 43.1153 1.64163 43.0094 1.69095C42.9105 1.73323 42.7339 1.80721 42.4797 1.91289C42.2325 2.01857 42.0665 2.08903 41.9817 2.12426C41.4873 2.33563 41.1236 2.55757 40.8905 2.79007C40.6574 3.01553 40.4914 3.31145 40.3926 3.67782C40.6327 3.36077 40.9364 3.12826 41.3037 2.9803C41.678 2.8253 42.0418 2.7478 42.3949 2.7478C43.1012 2.7478 43.6839 2.9803 44.143 3.44532C44.6091 3.90328 44.8422 4.49159 44.8422 5.21025C44.8422 5.92186 44.595 6.51369 44.1006 6.98575C43.6133 7.45076 42.9953 7.68327 42.2466 7.68327ZM42.2466 6.98575C42.7975 6.98575 43.2495 6.82018 43.6027 6.48903C43.9629 6.15084 44.143 5.72458 44.143 5.21025C44.143 4.68887 43.9735 4.26261 43.6345 3.93147C43.3025 3.59327 42.8575 3.42418 42.2996 3.42418C41.7981 3.42418 41.3425 3.58271 40.9329 3.89976C40.5232 4.20977 40.3184 4.62546 40.3184 5.14684C40.3184 5.68231 40.502 6.12266 40.8693 6.46789C41.2436 6.81313 41.7027 6.98575 42.2466 6.98575Z" fill="#36497E"/>
<path d="M49.7621 2.27222H50.3554V7.55645H49.6561V3.48759L46.499 7.55645H45.9057V2.27222H46.6049V6.34107L49.7621 2.27222Z" fill="#36497E"/>
<path d="M54.6733 2.1454C55.4291 2.1454 56.0718 2.41313 56.6015 2.9486C57.1383 3.48407 57.4067 4.13931 57.4067 4.91433C57.4067 5.68935 57.1383 6.3446 56.6015 6.88006C56.0718 7.41553 55.4291 7.68327 54.6733 7.68327C53.734 7.68327 53.0206 7.29576 52.5333 6.52074V9.67014H51.834V2.27222H52.5333V3.30793C53.0206 2.53291 53.734 2.1454 54.6733 2.1454ZM53.1372 6.40448C53.5397 6.80609 54.0341 7.00689 54.6204 7.00689C55.2066 7.00689 55.701 6.80609 56.1036 6.40448C56.5062 5.99584 56.7075 5.49912 56.7075 4.91433C56.7075 4.32954 56.5062 3.83635 56.1036 3.43475C55.701 3.0261 55.2066 2.82178 54.6204 2.82178C54.0341 2.82178 53.5397 3.0261 53.1372 3.43475C52.7346 3.83635 52.5333 4.32954 52.5333 4.91433C52.5333 5.49912 52.7346 5.99584 53.1372 6.40448Z" fill="#36497E"/>
<path d="M64.3323 7.55645H63.4848L61.3235 5.00945V7.55645H60.6243V5.00945L58.463 7.55645H57.6155L59.9886 4.80865L57.7214 2.27222H58.569L60.6243 4.61841V2.27222H61.3235V4.61841L63.3788 2.27222H64.2264L61.9592 4.80865L64.3323 7.55645Z" fill="#36497E"/>
<path d="M69.4154 2.27222H70.1146V7.55645H69.4154V6.52074C68.9281 7.29576 68.2147 7.68327 67.2753 7.68327C66.5196 7.68327 65.8733 7.41553 65.3366 6.88006C64.8068 6.3446 64.542 5.68935 64.542 4.91433C64.542 4.13931 64.8068 3.48407 65.3366 2.9486C65.8733 2.41313 66.5196 2.1454 67.2753 2.1454C68.2147 2.1454 68.9281 2.53291 69.4154 3.30793V2.27222ZM65.8451 6.40448C66.2477 6.80609 66.7421 7.00689 67.3283 7.00689C67.9145 7.00689 68.4089 6.80609 68.8115 6.40448C69.2141 5.99584 69.4154 5.49912 69.4154 4.91433C69.4154 4.32954 69.2141 3.83635 68.8115 3.43475C68.4089 3.0261 67.9145 2.82178 67.3283 2.82178C66.7421 2.82178 66.2477 3.0261 65.8451 3.43475C65.4425 3.83635 65.2412 4.32954 65.2412 4.91433C65.2412 5.49912 65.4425 5.99584 65.8451 6.40448Z" fill="#36497E"/>
<path d="M78.6934 2.27222V7.55645H77.9942V2.9486H74.943V7.55645H74.2437V2.27222H78.6934Z" fill="#36497E"/>
<path d="M84.6111 6.89063C84.0743 7.41906 83.4175 7.68327 82.6406 7.68327C81.8636 7.68327 81.2032 7.41906 80.6594 6.89063C80.1226 6.35517 79.8542 5.6964 79.8542 4.91433C79.8542 4.13227 80.1226 3.47702 80.6594 2.9486C81.2032 2.41313 81.8636 2.1454 82.6406 2.1454C83.4175 2.1454 84.0743 2.41313 84.6111 2.9486C85.155 3.47702 85.4269 4.13227 85.4269 4.91433C85.4269 5.6964 85.155 6.35517 84.6111 6.89063ZM81.1573 6.40448C81.5599 6.80609 82.0543 7.00689 82.6406 7.00689C83.2268 7.00689 83.7212 6.80609 84.1238 6.40448C84.5264 5.99584 84.7277 5.49912 84.7277 4.91433C84.7277 4.32954 84.5264 3.83635 84.1238 3.43475C83.7212 3.0261 83.2268 2.82178 82.6406 2.82178C82.0543 2.82178 81.5599 3.0261 81.1573 3.43475C80.7548 3.83635 80.5535 4.32954 80.5535 4.91433C80.5535 5.49912 80.7548 5.99584 81.1573 6.40448Z" fill="#36497E"/>
<path d="M92.6358 2.27222V2.9486H89.9448V7.55645H89.2456V2.27222H92.6358Z" fill="#36497E"/>
<path d="M97.7197 6.89063C97.1829 7.41906 96.526 7.68327 95.7491 7.68327C94.9722 7.68327 94.3118 7.41906 93.7679 6.89063C93.2311 6.35517 92.9628 5.6964 92.9628 4.91433C92.9628 4.13227 93.2311 3.47702 93.7679 2.9486C94.3118 2.41313 94.9722 2.1454 95.7491 2.1454C96.526 2.1454 97.1829 2.41313 97.7197 2.9486C98.2635 3.47702 98.5354 4.13227 98.5354 4.91433C98.5354 5.6964 98.2635 6.35517 97.7197 6.89063ZM94.2659 6.40448C94.6685 6.80609 95.1629 7.00689 95.7491 7.00689C96.3353 7.00689 96.8297 6.80609 97.2323 6.40448C97.6349 5.99584 97.8362 5.49912 97.8362 4.91433C97.8362 4.32954 97.6349 3.83635 97.2323 3.43475C96.8297 3.0261 96.3353 2.82178 95.7491 2.82178C95.1629 2.82178 94.6685 3.0261 94.2659 3.43475C93.8633 3.83635 93.662 4.32954 93.662 4.91433C93.662 5.49912 93.8633 5.99584 94.2659 6.40448Z" fill="#36497E"/>
<path d="M102.545 2.1454C103.301 2.1454 103.943 2.41313 104.473 2.9486C105.01 3.48407 105.278 4.13931 105.278 4.91433C105.278 5.68935 105.01 6.3446 104.473 6.88006C103.943 7.41553 103.301 7.68327 102.545 7.68327C101.605 7.68327 100.892 7.29576 100.405 6.52074V9.67014H99.7055V2.27222H100.405V3.30793C100.892 2.53291 101.605 2.1454 102.545 2.1454ZM101.009 6.40448C101.411 6.80609 101.906 7.00689 102.492 7.00689C103.078 7.00689 103.572 6.80609 103.975 6.40448C104.378 5.99584 104.579 5.49912 104.579 4.91433C104.579 4.32954 104.378 3.83635 103.975 3.43475C103.572 3.0261 103.078 2.82178 102.492 2.82178C101.906 2.82178 101.411 3.0261 101.009 3.43475C100.606 3.83635 100.405 4.32954 100.405 4.91433C100.405 5.49912 100.606 5.99584 101.009 6.40448Z" fill="#36497E"/>
<path d="M110.965 2.1454C111.742 2.1454 112.398 2.41313 112.935 2.9486C113.479 3.47702 113.751 4.13227 113.751 4.91433C113.751 5.6964 113.479 6.35517 112.935 6.89063C112.398 7.41906 111.742 7.68327 110.965 7.68327C110.251 7.68327 109.637 7.45428 109.121 6.99632C108.613 6.53131 108.32 5.95004 108.242 5.25252H107.14V7.55645H106.441V2.27222H107.14V4.57614H108.242C108.32 3.87862 108.613 3.30088 109.121 2.84291C109.637 2.3779 110.251 2.1454 110.965 2.1454ZM109.481 6.40448C109.884 6.80609 110.378 7.00689 110.965 7.00689C111.551 7.00689 112.045 6.80609 112.448 6.40448C112.85 5.99584 113.052 5.49912 113.052 4.91433C113.052 4.32954 112.85 3.83635 112.448 3.43475C112.045 3.0261 111.551 2.82178 110.965 2.82178C110.378 2.82178 109.884 3.0261 109.481 3.43475C109.079 3.83635 108.878 4.32954 108.878 4.91433C108.878 5.49912 109.079 5.99584 109.481 6.40448Z" fill="#36497E"/>
<path d="M118.243 2.27222H118.943V7.55645H118.243V5.54844C117.834 5.75981 117.329 5.86549 116.728 5.86549C116.036 5.86549 115.507 5.70697 115.139 5.38991C114.779 5.06581 114.599 4.59023 114.599 3.96317V2.27222H115.298V3.96317C115.298 4.40705 115.415 4.72762 115.648 4.9249C115.881 5.11513 116.234 5.21025 116.707 5.21025C117.258 5.21025 117.77 5.10809 118.243 4.90376V2.27222Z" fill="#36497E"/>
<path d="M122.876 2.1454C123.66 2.1454 124.292 2.4237 124.773 2.9803C125.26 3.52986 125.504 4.18159 125.504 4.93547C125.504 5.01297 125.496 5.12218 125.482 5.26309H120.831C120.902 5.79856 121.128 6.22482 121.509 6.54187C121.898 6.85188 122.375 7.00689 122.94 7.00689C123.342 7.00689 123.688 6.92586 123.978 6.76381C124.275 6.59472 124.497 6.3763 124.645 6.10857L125.26 6.46789C125.027 6.84131 124.709 7.13723 124.306 7.35565C123.904 7.57406 123.445 7.68327 122.929 7.68327C122.096 7.68327 121.418 7.42258 120.895 6.9012C120.372 6.37982 120.111 5.71753 120.111 4.91433C120.111 4.12522 120.369 3.46645 120.884 2.93803C121.4 2.40961 122.064 2.1454 122.876 2.1454ZM122.876 2.82178C122.325 2.82178 121.863 2.98735 121.488 3.3185C121.121 3.64259 120.902 4.06533 120.831 4.58671H124.783C124.712 4.0301 124.497 3.5968 124.137 3.28679C123.777 2.97678 123.356 2.82178 122.876 2.82178Z" fill="#36497E"/>
<path d="M126.722 4.62898V3.9526H130.536V4.62898H126.722Z" fill="#36497E"/>
<path d="M134.588 7.68327C133.79 7.68327 133.126 7.41906 132.597 6.89063C132.067 6.35517 131.802 5.6964 131.802 4.91433C131.802 4.13227 132.067 3.47702 132.597 2.9486C133.126 2.41313 133.79 2.1454 134.588 2.1454C135.111 2.1454 135.581 2.27222 135.997 2.52586C136.414 2.77246 136.718 3.10713 136.909 3.52986L136.336 3.85749C136.195 3.54043 135.966 3.29031 135.648 3.10713C135.337 2.91689 134.984 2.82178 134.588 2.82178C134.002 2.82178 133.508 3.0261 133.105 3.43475C132.703 3.83635 132.501 4.32954 132.501 4.91433C132.501 5.49912 132.703 5.99584 133.105 6.40448C133.508 6.80609 134.002 7.00689 134.588 7.00689C134.984 7.00689 135.337 6.91529 135.648 6.73211C135.959 6.54187 136.202 6.28823 136.379 5.97118L136.962 6.30937C136.743 6.73211 136.421 7.06677 135.997 7.31337C135.574 7.55997 135.104 7.68327 134.588 7.68327Z" fill="#36497E"/>
<path d="M143.157 2.27222V7.55645H142.457V3.33963L140.603 6.34107H140.519L138.665 3.33963V7.55645H137.965V2.27222H138.771L140.561 5.16797L142.352 2.27222H143.157Z" fill="#36497E"/>
<path d="M149.194 2.27222H149.894V7.55645H149.194V6.52074C148.707 7.29576 147.994 7.68327 147.054 7.68327C146.299 7.68327 145.652 7.41553 145.115 6.88006C144.586 6.3446 144.321 5.68935 144.321 4.91433C144.321 4.13931 144.586 3.48407 145.115 2.9486C145.652 2.41313 146.299 2.1454 147.054 2.1454C147.994 2.1454 148.707 2.53291 149.194 3.30793V2.27222ZM145.624 6.40448C146.027 6.80609 146.521 7.00689 147.107 7.00689C147.693 7.00689 148.188 6.80609 148.59 6.40448C148.993 5.99584 149.194 5.49912 149.194 4.91433C149.194 4.32954 148.993 3.83635 148.59 3.43475C148.188 3.0261 147.693 2.82178 147.107 2.82178C146.521 2.82178 146.027 3.0261 145.624 3.43475C145.221 3.83635 145.02 4.32954 145.02 4.91433C145.02 5.49912 145.221 5.99584 145.624 6.40448Z" fill="#36497E"/>
<path d="M154.107 4.84035C154.722 5.07286 155.029 5.4956 155.029 6.10857C155.029 6.5454 154.856 6.91882 154.51 7.22882C154.171 7.53179 153.684 7.68327 153.048 7.68327C151.981 7.68327 151.282 7.26053 150.95 6.41505L151.544 6.06629C151.762 6.69335 152.264 7.00689 153.048 7.00689C153.458 7.00689 153.772 6.91882 153.991 6.74267C154.217 6.56653 154.33 6.34107 154.33 6.06629C154.33 5.8197 154.238 5.6189 154.054 5.46389C153.871 5.30889 153.624 5.23139 153.313 5.23139H152.539V4.555H153.101C153.405 4.555 153.641 4.48103 153.811 4.33307C153.987 4.17806 154.076 3.96669 154.076 3.69896C154.076 3.44532 153.973 3.23747 153.768 3.07542C153.564 2.90633 153.288 2.82178 152.942 2.82178C152.278 2.82178 151.837 3.08599 151.618 3.61441L151.035 3.27622C151.388 2.52234 152.024 2.1454 152.942 2.1454C153.5 2.1454 153.945 2.29335 154.277 2.58927C154.609 2.87814 154.775 3.23395 154.775 3.65669C154.775 4.1992 154.552 4.59376 154.107 4.84035Z" fill="#36497E"/>
<path d="M160.531 6.89063C159.994 7.41906 159.337 7.68327 158.56 7.68327C157.783 7.68327 157.123 7.41906 156.579 6.89063C156.042 6.35517 155.774 5.6964 155.774 4.91433C155.774 4.13227 156.042 3.47702 156.579 2.9486C157.123 2.41313 157.783 2.1454 158.56 2.1454C159.337 2.1454 159.994 2.41313 160.531 2.9486C161.075 3.47702 161.347 4.13227 161.347 4.91433C161.347 5.6964 161.075 6.35517 160.531 6.89063ZM157.077 6.40448C157.48 6.80609 157.974 7.00689 158.56 7.00689C159.147 7.00689 159.641 6.80609 160.044 6.40448C160.446 5.99584 160.647 5.49912 160.647 4.91433C160.647 4.32954 160.446 3.83635 160.044 3.43475C159.641 3.0261 159.147 2.82178 158.56 2.82178C157.974 2.82178 157.48 3.0261 157.077 3.43475C156.675 3.83635 156.473 4.32954 156.473 4.91433C156.473 5.49912 156.675 5.99584 157.077 6.40448Z" fill="#36497E"/>
<path d="M165.846 2.27222H166.545V7.55645H165.846V5.54844C165.436 5.75981 164.931 5.86549 164.331 5.86549C163.639 5.86549 163.109 5.70697 162.742 5.38991C162.382 5.06581 162.201 4.59023 162.201 3.96317V2.27222H162.901V3.96317C162.901 4.40705 163.017 4.72762 163.25 4.9249C163.483 5.11513 163.837 5.21025 164.31 5.21025C164.861 5.21025 165.373 5.10809 165.846 4.90376V2.27222Z" fill="#36497E"/>
<path d="M171.782 2.27222H172.481V7.55645H171.782V5.25252H168.731V7.55645H168.031V2.27222H168.731V4.57614H171.782V2.27222Z" fill="#36497E"/>
<path d="M176.11 4.28022C176.605 4.28022 177.021 4.43523 177.36 4.74524C177.706 5.0482 177.88 5.43923 177.88 5.91834C177.88 6.39744 177.706 6.79199 177.36 7.102C177.021 7.40496 176.605 7.55645 176.11 7.55645H173.96V2.27222H174.659V4.28022H176.11ZM178.621 2.27222H179.32V7.55645H178.621V2.27222ZM176.11 6.88006C176.407 6.88006 176.658 6.79199 176.862 6.61585C177.074 6.43971 177.18 6.20721 177.18 5.91834C177.18 5.62946 177.074 5.39696 176.862 5.22082C176.658 5.04468 176.407 4.95661 176.11 4.95661H174.659V6.88006H176.11Z" fill="#36497E"/>
<path d="M186 2.27222V7.55645H185.301V3.33963L183.447 6.34107H183.362L181.508 3.33963V7.55645H180.809V2.27222H181.614L183.404 5.16797L185.195 2.27222H186Z" fill="#36497E"/>
<path d="M5.19127 14.6021V19.8863H4.49204V15.6695L2.63801 18.6709H2.55326L0.699232 15.6695V19.8863H0V14.6021H0.805176L2.59563 17.4978L4.38609 14.6021H5.19127Z" fill="#36497E"/>
<path d="M11.2288 14.6021H11.9281V19.8863H11.2288V18.8506C10.7415 19.6256 10.0281 20.0131 9.08877 20.0131C8.33304 20.0131 7.68678 19.7454 7.14999 19.2099C6.62027 18.6745 6.35541 18.0192 6.35541 17.2442C6.35541 16.4692 6.62027 15.8139 7.14999 15.2785C7.68678 14.743 8.33304 14.4753 9.08877 14.4753C10.0281 14.4753 10.7415 14.8628 11.2288 15.6378V14.6021ZM7.65853 18.7343C8.06111 19.1359 8.55552 19.3368 9.14175 19.3368C9.72797 19.3368 10.2224 19.1359 10.625 18.7343C11.0276 18.3257 11.2288 17.829 11.2288 17.2442C11.2288 16.6594 11.0276 16.1662 10.625 15.7646C10.2224 15.356 9.72797 15.1516 9.14175 15.1516C8.55552 15.1516 8.06111 15.356 7.65853 15.7646C7.25594 16.1662 7.05464 16.6594 7.05464 17.2442C7.05464 17.829 7.25594 18.3257 7.65853 18.7343Z" fill="#36497E"/>
<path d="M17.2226 14.6021V15.2785H15.3473V19.8863H14.6481V15.2785H12.7729V14.6021H17.2226Z" fill="#36497E"/>
<path d="M20.3151 14.4753C21.099 14.4753 21.7312 14.7536 22.2115 15.3102C22.6988 15.8597 22.9425 16.5114 22.9425 17.2653C22.9425 17.3428 22.9354 17.452 22.9213 17.593H18.2703C18.341 18.1284 18.567 18.5547 18.9484 18.8717C19.3368 19.1817 19.8136 19.3368 20.3786 19.3368C20.7812 19.3368 21.1273 19.2557 21.4169 19.0937C21.7135 18.9246 21.936 18.7062 22.0843 18.4384L22.6988 18.7978C22.4657 19.1712 22.1479 19.4671 21.7453 19.6855C21.3427 19.9039 20.8836 20.0131 20.368 20.0131C19.5346 20.0131 18.8566 19.7524 18.3339 19.2311C17.8112 18.7097 17.5499 18.0474 17.5499 17.2442C17.5499 16.4551 17.8077 15.7963 18.3233 15.2679C18.8389 14.7395 19.5028 14.4753 20.3151 14.4753ZM20.3151 15.1516C19.7641 15.1516 19.3015 15.3172 18.9272 15.6484C18.5599 15.9725 18.341 16.3952 18.2703 16.9166H22.2221C22.1514 16.36 21.936 15.9267 21.5758 15.6167C21.2156 15.3066 20.7953 15.1516 20.3151 15.1516Z" fill="#36497E"/>
<path d="M26.894 14.4753C27.6498 14.4753 28.2925 14.743 28.8222 15.2785C29.359 15.8139 29.6274 16.4692 29.6274 17.2442C29.6274 18.0192 29.359 18.6745 28.8222 19.2099C28.2925 19.7454 27.6498 20.0131 26.894 20.0131C25.9547 20.0131 25.2413 19.6256 24.754 18.8506V22H24.0547V14.6021H24.754V15.6378C25.2413 14.8628 25.9547 14.4753 26.894 14.4753ZM25.3578 18.7343C25.7604 19.1359 26.2548 19.3368 26.8411 19.3368C27.4273 19.3368 27.9217 19.1359 28.3243 18.7343C28.7269 18.3257 28.9282 17.829 28.9282 17.2442C28.9282 16.6594 28.7269 16.1662 28.3243 15.7646C27.9217 15.356 27.4273 15.1516 26.8411 15.1516C26.2548 15.1516 25.7604 15.356 25.3578 15.7646C24.9552 16.1662 24.754 16.6594 24.754 17.2442C24.754 17.829 24.9552 18.3257 25.3578 18.7343Z" fill="#36497E"/>
<path d="M34.6464 14.6021H35.2397V19.8863H34.5405V15.8175L31.3833 19.8863H30.79V14.6021H31.4893V18.6709L34.6464 14.6021Z" fill="#36497E"/>
<path d="M41.274 14.6021H41.9732V19.8863H41.274V18.8506C40.7866 19.6256 40.0733 20.0131 39.1339 20.0131C38.3782 20.0131 37.7319 19.7454 37.1951 19.2099C36.6654 18.6745 36.4005 18.0192 36.4005 17.2442C36.4005 16.4692 36.6654 15.8139 37.1951 15.2785C37.7319 14.743 38.3782 14.4753 39.1339 14.4753C40.0733 14.4753 40.7866 14.8628 41.274 15.6378V14.6021ZM37.7036 18.7343C38.1062 19.1359 38.6006 19.3368 39.1869 19.3368C39.7731 19.3368 40.2675 19.1359 40.6701 18.7343C41.0727 18.3257 41.274 17.829 41.274 17.2442C41.274 16.6594 41.0727 16.1662 40.6701 15.7646C40.2675 15.356 39.7731 15.1516 39.1869 15.1516C38.6006 15.1516 38.1062 15.356 37.7036 15.7646C37.3011 16.1662 37.0998 16.6594 37.0998 17.2442C37.0998 17.829 37.3011 18.3257 37.7036 18.7343Z" fill="#36497E"/>
<path d="M47.7974 14.6021V19.8863H47.0982V15.2785H44.7038V17.6352C44.7038 18.5159 44.5343 19.1219 44.1953 19.453C43.8633 19.7841 43.4042 19.9286 42.818 19.8863V19.2311C43.2206 19.2733 43.5173 19.1782 43.708 18.9457C43.9057 18.7132 44.0046 18.2764 44.0046 17.6352V14.6021H47.7974Z" fill="#36497E"/>
<path d="M53.8342 14.6021H54.5334V19.8863H53.8342V18.8506C53.3468 19.6256 52.6335 20.0131 51.6941 20.0131C50.9383 20.0131 50.2921 19.7454 49.7553 19.2099C49.2256 18.6745 48.9607 18.0192 48.9607 17.2442C48.9607 16.4692 49.2256 15.8139 49.7553 15.2785C50.2921 14.743 50.9383 14.4753 51.6941 14.4753C52.6335 14.4753 53.3468 14.8628 53.8342 15.6378V14.6021ZM50.2638 18.7343C50.6664 19.1359 51.1608 19.3368 51.7471 19.3368C52.3333 19.3368 52.8277 19.1359 53.2303 18.7343C53.6329 18.3257 53.8342 17.829 53.8342 17.2442C53.8342 16.6594 53.6329 16.1662 53.2303 15.7646C52.8277 15.356 52.3333 15.1516 51.7471 15.1516C51.1608 15.1516 50.6664 15.356 50.2638 15.7646C49.8612 16.1662 49.66 16.6594 49.66 17.2442C49.66 17.829 49.8612 18.3257 50.2638 18.7343Z" fill="#36497E"/>
<path d="M61.2051 14.6021V19.8863H60.5059V15.6695L58.6519 18.6709H58.5671L56.7131 15.6695V19.8863H56.0139V14.6021H56.8191L58.6095 17.4978L60.4 14.6021H61.2051Z" fill="#36497E"/>
<path d="M68.7048 17.1702C69.2839 17.3816 69.5735 17.7938 69.5735 18.4067C69.5735 18.8365 69.4287 19.1923 69.1391 19.4741C68.8566 19.7489 68.447 19.8863 67.9102 19.8863H65.3357V14.6021H67.6983C68.2139 14.6021 68.6129 14.7359 68.8955 15.0037C69.178 15.2644 69.3192 15.6026 69.3192 16.0183C69.3192 16.5467 69.1144 16.9307 68.7048 17.1702ZM67.6983 15.2785H66.035V16.8849H67.6983C68.3128 16.8849 68.62 16.6101 68.62 16.0605C68.62 15.8139 68.5388 15.6237 68.3763 15.4898C68.2209 15.3489 67.9949 15.2785 67.6983 15.2785ZM67.9102 19.2099C68.2209 19.2099 68.4576 19.1359 68.62 18.988C68.7895 18.84 68.8743 18.6322 68.8743 18.3645C68.8743 18.1179 68.7895 17.9241 68.62 17.7832C68.4576 17.6352 68.2209 17.5613 67.9102 17.5613H66.035V19.2099H67.9102Z" fill="#36497E"/>
<path d="M77.71 12.4884H78.4728L76.0043 18.2693C75.7571 18.8612 75.4428 19.2874 75.0614 19.5481C74.68 19.8088 74.2068 19.9215 73.6418 19.8863V19.2099C74.0373 19.2522 74.3622 19.1958 74.6164 19.0408C74.8778 18.8788 75.0932 18.6005 75.2627 18.2059L75.411 17.8572L72.8578 12.4884H73.6206L75.7606 17.0328L77.71 12.4884Z" fill="#36497E"/>
<path d="M81.5294 17.1702C82.1439 17.4027 82.4511 17.8255 82.4511 18.4384C82.4511 18.8753 82.2781 19.2487 81.932 19.5587C81.5929 19.8617 81.1056 20.0131 80.4699 20.0131C79.4034 20.0131 78.7042 19.5904 78.3722 18.7449L78.9655 18.3962C79.1845 19.0232 79.686 19.3368 80.4699 19.3368C80.8796 19.3368 81.1939 19.2487 81.4128 19.0725C81.6389 18.8964 81.7519 18.6709 81.7519 18.3962C81.7519 18.1496 81.66 17.9488 81.4764 17.7938C81.2928 17.6388 81.0456 17.5613 80.7348 17.5613H79.9614V16.8849H80.5229C80.8266 16.8849 81.0632 16.8109 81.2327 16.6629C81.4093 16.5079 81.4976 16.2966 81.4976 16.0288C81.4976 15.7752 81.3952 15.5673 81.1904 15.4053C80.9855 15.2362 80.7101 15.1516 80.364 15.1516C79.7001 15.1516 79.2586 15.4159 79.0397 15.9443L78.457 15.6061C78.8102 14.8522 79.4458 14.4753 80.364 14.4753C80.922 14.4753 81.3669 14.6232 81.6989 14.9191C82.0309 15.208 82.1968 15.5638 82.1968 15.9866C82.1968 16.5291 81.9743 16.9236 81.5294 17.1702Z" fill="#36497E"/>
<path d="M85.8658 20.0131C85.103 20.0131 84.4674 19.763 83.9588 19.2628C83.4503 18.7555 83.196 18.1002 83.196 17.297C83.196 16.3952 83.3302 15.7047 83.5986 15.2256C83.867 14.7395 84.4108 14.2991 85.2301 13.9046C85.3855 13.8271 85.5904 13.7355 85.8446 13.6298C86.106 13.5241 86.3002 13.4396 86.4273 13.3761C86.5615 13.3127 86.7063 13.2317 86.8617 13.1331C87.0171 13.0274 87.1336 12.9111 87.2113 12.7843C87.289 12.6575 87.3384 12.506 87.3596 12.3299L87.9105 12.6469C87.8823 12.816 87.8258 12.9745 87.741 13.1225C87.6563 13.2705 87.568 13.3902 87.4762 13.4818C87.3914 13.5734 87.2537 13.6756 87.063 13.7883C86.8793 13.894 86.7346 13.9715 86.6286 14.0208C86.5297 14.0631 86.3532 14.1371 86.0989 14.2428C85.8517 14.3484 85.6857 14.4189 85.601 14.4541C85.1066 14.6655 84.7428 14.8874 84.5097 15.1199C84.2767 15.3454 84.1107 15.6413 84.0118 16.0077C84.2519 15.6906 84.5556 15.4581 84.9229 15.3102C85.2972 15.1552 85.661 15.0777 86.0141 15.0777C86.7204 15.0777 87.3031 15.3102 87.7622 15.7752C88.2284 16.2331 88.4614 16.8215 88.4614 17.5401C88.4614 18.2517 88.2142 18.8436 87.7198 19.3156C87.2325 19.7806 86.6145 20.0131 85.8658 20.0131ZM85.8658 19.3156C86.4167 19.3156 86.8688 19.15 87.2219 18.8189C87.5821 18.4807 87.7622 18.0544 87.7622 17.5401C87.7622 17.0187 87.5927 16.5925 87.2537 16.2613C86.9217 15.9231 86.4768 15.754 85.9188 15.754C85.4173 15.754 84.9618 15.9126 84.5521 16.2296C84.1425 16.5396 83.9376 16.9553 83.9376 17.4767C83.9376 18.0122 84.1213 18.4525 84.4885 18.7978C84.8629 19.143 85.322 19.3156 85.8658 19.3156Z" fill="#36497E"/>
<path d="M91.9723 14.4753C92.7562 14.4753 93.3884 14.7536 93.8687 15.3102C94.356 15.8597 94.5997 16.5114 94.5997 17.2653C94.5997 17.3428 94.5926 17.452 94.5785 17.593H89.9275C89.9982 18.1284 90.2242 18.5547 90.6056 18.8717C90.994 19.1817 91.4708 19.3368 92.0358 19.3368C92.4384 19.3368 92.7845 19.2557 93.0741 19.0937C93.3707 18.9246 93.5932 18.7062 93.7415 18.4384L94.356 18.7978C94.1229 19.1712 93.8051 19.4671 93.4025 19.6855C92.9999 19.9039 92.5408 20.0131 92.0252 20.0131C91.1918 20.0131 90.5138 19.7524 89.9911 19.2311C89.4684 18.7097 89.2071 18.0474 89.2071 17.2442C89.2071 16.4551 89.4649 15.7963 89.9805 15.2679C90.4961 14.7395 91.16 14.4753 91.9723 14.4753ZM91.9723 15.1516C91.4213 15.1516 90.9587 15.3172 90.5844 15.6484C90.2171 15.9725 89.9982 16.3952 89.9275 16.9166H93.8793C93.8086 16.36 93.5932 15.9267 93.233 15.6167C92.8728 15.3066 92.4525 15.1516 91.9723 15.1516Z" fill="#36497E"/>
<path d="M99.9921 19.8863H99.0598L96.4112 17.3393V19.8863H95.7119V14.6021H96.4112V16.9377L98.9326 14.6021H99.8861L97.1528 17.1385L99.9921 19.8863Z" fill="#36497E"/>
<path d="M104.803 14.6021H105.397V19.8863H104.697V15.8175L101.54 19.8863H100.947V14.6021H101.646V18.6709L104.803 14.6021Z" fill="#36497E"/>
<path d="M109.344 20.0131C108.546 20.0131 107.882 19.7489 107.352 19.2205C106.822 18.685 106.558 18.0263 106.558 17.2442C106.558 16.4621 106.822 15.8069 107.352 15.2785C107.882 14.743 108.546 14.4753 109.344 14.4753C109.867 14.4753 110.336 14.6021 110.753 14.8557C111.17 15.1023 111.473 15.437 111.664 15.8597L111.092 16.1873C110.951 15.8703 110.721 15.6202 110.403 15.437C110.093 15.2468 109.739 15.1516 109.344 15.1516C108.758 15.1516 108.263 15.356 107.861 15.7646C107.458 16.1662 107.257 16.6594 107.257 17.2442C107.257 17.829 107.458 18.3257 107.861 18.7343C108.263 19.1359 108.758 19.3368 109.344 19.3368C109.739 19.3368 110.093 19.2452 110.403 19.062C110.714 18.8717 110.958 18.6181 111.134 18.301L111.717 18.6392C111.498 19.062 111.177 19.3966 110.753 19.6432C110.329 19.8898 109.859 20.0131 109.344 20.0131Z" fill="#36497E"/>
<path d="M116.431 14.6021V15.2785H114.556V19.8863H113.857V15.2785H111.982V14.6021H116.431Z" fill="#36497E"/>
<path d="M121.632 14.6021H122.331V19.8863H121.632V18.8506C121.145 19.6256 120.432 20.0131 119.492 20.0131C118.736 20.0131 118.09 19.7454 117.553 19.2099C117.024 18.6745 116.759 18.0192 116.759 17.2442C116.759 16.4692 117.024 15.8139 117.553 15.2785C118.09 14.743 118.736 14.4753 119.492 14.4753C120.432 14.4753 121.145 14.8628 121.632 15.6378V14.6021ZM118.062 18.7343C118.465 19.1359 118.959 19.3368 119.545 19.3368C120.131 19.3368 120.626 19.1359 121.028 18.7343C121.431 18.3257 121.632 17.829 121.632 17.2442C121.632 16.6594 121.431 16.1662 121.028 15.7646C120.626 15.356 120.131 15.1516 119.545 15.1516C118.959 15.1516 118.465 15.356 118.062 15.7646C117.659 16.1662 117.458 16.6594 117.458 17.2442C117.458 17.829 117.659 18.3257 118.062 18.7343Z" fill="#36497E"/>
<path d="M127.562 14.6021H128.262V19.8863H127.562V17.5824H124.511V19.8863H123.812V14.6021H124.511V16.906H127.562V14.6021Z" fill="#36497E"/>
<path d="M132.188 14.4753C132.972 14.4753 133.604 14.7536 134.084 15.3102C134.571 15.8597 134.815 16.5114 134.815 17.2653C134.815 17.3428 134.808 17.452 134.794 17.593H130.143C130.214 18.1284 130.44 18.5547 130.821 18.8717C131.209 19.1817 131.686 19.3368 132.251 19.3368C132.654 19.3368 133 19.2557 133.289 19.0937C133.586 18.9246 133.809 18.7062 133.957 18.4384L134.571 18.7978C134.338 19.1712 134.02 19.4671 133.618 19.6855C133.215 19.9039 132.756 20.0131 132.241 20.0131C131.407 20.0131 130.729 19.7524 130.206 19.2311C129.684 18.7097 129.422 18.0474 129.422 17.2442C129.422 16.4551 129.68 15.7963 130.196 15.2679C130.711 14.7395 131.375 14.4753 132.188 14.4753ZM132.188 15.1516C131.637 15.1516 131.174 15.3172 130.8 15.6484C130.432 15.9725 130.214 16.3952 130.143 16.9166H134.095C134.024 16.36 133.809 15.9267 133.448 15.6167C133.088 15.3066 132.668 15.1516 132.188 15.1516Z" fill="#36497E"/>
</svg>
