<svg width="25" height="24" viewBox="0 0 25 24" fill="none" xmlns="http://www.w3.org/2000/svg">
<path d="M16.4228 3.29289C16.813 2.90237 17.4456 2.90237 17.8358 3.29289L20.8331 6.29289C21.2233 6.68342 21.2233 7.31658 20.8331 7.70711L11.841 16.7071C11.6537 16.8946 11.3995 17 11.1346 17H8.1372C7.5854 17 7.13808 16.5523 7.13808 16V13C7.13808 12.7348 7.24335 12.4804 7.43072 12.2929L16.4228 3.29289ZM9.13632 13.4142V15H10.7207L18.7137 7L17.1293 5.41421L9.13632 13.4142ZM3.1416 7C3.1416 5.89543 4.03624 5 5.13984 5H10.1354C10.6872 5 11.1346 5.44772 11.1346 6C11.1346 6.55228 10.6872 7 10.1354 7H5.13984V19H17.1293V14C17.1293 13.4477 17.5766 13 18.1284 13C18.6802 13 19.1275 13.4477 19.1275 14V19C19.1275 20.1046 18.2329 21 17.1293 21H5.13984C4.03624 21 3.1416 20.1046 3.1416 19V7Z" fill="#2F80ED"/>
</svg>
