<svg width="18" height="18" viewBox="0 0 18 18" fill="none" xmlns="http://www.w3.org/2000/svg">
<path d="M17.9543 5.15583C17.9121 4.22404 17.7574 3.58344 17.5358 3.02835C17.3072 2.43914 16.9555 1.91162 16.4947 1.47309C16.0445 1.02774 15.4994 0.681681 14.9015 0.462483C14.3283 0.246631 13.6741 0.0959492 12.7175 0.0548663C11.7538 0.0103042 11.4478 0 9.0035 0C6.55919 0 6.25324 0.0103042 5.29308 0.051387C4.33648 0.0924699 3.67883 0.243285 3.1091 0.459004C2.50407 0.681681 1.96251 1.02426 1.51231 1.47309C1.0551 1.91162 0.699964 2.44262 0.474794 3.02501C0.253196 3.58344 0.0985033 4.22056 0.0563268 5.15235C0.0105784 6.0911 0 6.38912 0 8.77005C0 11.151 0.0105784 11.449 0.0527549 12.3843C0.0949313 13.3161 0.249761 13.9567 0.471359 14.5117C0.699964 15.101 1.0551 15.6285 1.51231 16.067C1.96251 16.5124 2.50764 16.8584 3.10553 17.0776C3.67883 17.2935 4.33291 17.4442 5.28964 17.4852C6.24967 17.5265 6.55576 17.5366 9.00007 17.5366C11.4444 17.5366 11.7503 17.5265 12.7105 17.4852C13.6671 17.4442 14.3247 17.2935 14.8945 17.0776C16.1044 16.622 17.061 15.6902 17.5288 14.5117C17.7502 13.9533 17.9051 13.3161 17.9472 12.3843C17.9894 11.449 18 11.151 18 8.77005C18 6.38912 17.9964 6.0911 17.9543 5.15583ZM16.333 12.3158C16.2943 13.1722 16.1466 13.6347 16.0235 13.943C15.721 14.707 15.0985 15.3133 14.3142 15.608C13.9976 15.7279 13.5194 15.8718 12.6436 15.9094C11.694 15.9506 11.4092 15.9608 9.00707 15.9608C6.60494 15.9608 6.31658 15.9506 5.37042 15.9094C4.49117 15.8718 4.01638 15.7279 3.69985 15.608C3.30955 15.4675 2.95427 15.2448 2.66591 14.9536C2.36696 14.6693 2.13836 14.3267 1.99411 13.9465C1.87101 13.6382 1.72333 13.1722 1.68472 12.3192C1.64241 11.3943 1.63197 11.1167 1.63197 8.77687C1.63197 6.43703 1.64241 6.15614 1.68472 5.23465C1.72333 4.3782 1.87101 3.91572 1.99411 3.60739C2.13836 3.22708 2.36696 2.88115 2.66948 2.60013C2.96128 2.30894 3.31298 2.08626 3.70342 1.94588C4.01995 1.82598 4.49832 1.68212 5.37399 1.64438C6.32358 1.6033 6.60851 1.593 9.01051 1.593C11.4162 1.593 11.701 1.6033 12.6472 1.64438C13.5264 1.68212 14.0012 1.82598 14.3177 1.94588C14.708 2.08626 15.0633 2.30894 15.3517 2.60013C15.6506 2.8845 15.8792 3.22708 16.0235 3.60739C16.1466 3.91572 16.2943 4.38155 16.333 5.23465C16.3752 6.15962 16.3858 6.43703 16.3858 8.77687C16.3858 11.1167 16.3752 11.3908 16.333 12.3158Z" fill="white"/>
<path d="M17.9543 5.15583C17.9121 4.22404 17.7574 3.58344 17.5358 3.02835C17.3072 2.43914 16.9555 1.91162 16.4947 1.47309C16.0445 1.02774 15.4994 0.681681 14.9015 0.462483C14.3283 0.246631 13.6741 0.0959492 12.7175 0.0548663C11.7538 0.0103042 11.4478 0 9.0035 0C6.55919 0 6.25324 0.0103042 5.29308 0.051387C4.33648 0.0924699 3.67883 0.243285 3.1091 0.459004C2.50407 0.681681 1.96251 1.02426 1.51231 1.47309C1.0551 1.91162 0.699964 2.44262 0.474794 3.02501C0.253196 3.58344 0.0985033 4.22056 0.0563268 5.15235C0.0105784 6.0911 0 6.38912 0 8.77005C0 11.151 0.0105784 11.449 0.0527549 12.3843C0.0949313 13.3161 0.249761 13.9567 0.471359 14.5117C0.699964 15.101 1.0551 15.6285 1.51231 16.067C1.96251 16.5124 2.50764 16.8584 3.10553 17.0776C3.67883 17.2935 4.33291 17.4442 5.28964 17.4852C6.24967 17.5265 6.55576 17.5366 9.00007 17.5366C11.4444 17.5366 11.7503 17.5265 12.7105 17.4852C13.6671 17.4442 14.3247 17.2935 14.8945 17.0776C16.1044 16.622 17.061 15.6902 17.5288 14.5117C17.7502 13.9533 17.9051 13.3161 17.9472 12.3843C17.9894 11.449 18 11.151 18 8.77005C18 6.38912 17.9964 6.0911 17.9543 5.15583ZM16.333 12.3158C16.2943 13.1722 16.1466 13.6347 16.0235 13.943C15.721 14.707 15.0985 15.3133 14.3142 15.608C13.9976 15.7279 13.5194 15.8718 12.6436 15.9094C11.694 15.9506 11.4092 15.9608 9.00707 15.9608C6.60494 15.9608 6.31658 15.9506 5.37042 15.9094C4.49117 15.8718 4.01638 15.7279 3.69985 15.608C3.30955 15.4675 2.95427 15.2448 2.66591 14.9536C2.36696 14.6693 2.13836 14.3267 1.99411 13.9465C1.87101 13.6382 1.72333 13.1722 1.68472 12.3192C1.64241 11.3943 1.63197 11.1167 1.63197 8.77687C1.63197 6.43703 1.64241 6.15614 1.68472 5.23465C1.72333 4.3782 1.87101 3.91572 1.99411 3.60739C2.13836 3.22708 2.36696 2.88115 2.66948 2.60013C2.96128 2.30894 3.31298 2.08626 3.70342 1.94588C4.01995 1.82598 4.49832 1.68212 5.37399 1.64438C6.32358 1.6033 6.60851 1.593 9.01051 1.593C11.4162 1.593 11.701 1.6033 12.6472 1.64438C13.5264 1.68212 14.0012 1.82598 14.3177 1.94588C14.708 2.08626 15.0633 2.30894 15.3517 2.60013C15.6506 2.8845 15.8792 3.22708 16.0235 3.60739C16.1466 3.91572 16.2943 4.38155 16.333 5.23465C16.3752 6.15962 16.3858 6.43703 16.3858 8.77687C16.3858 11.1167 16.3752 11.3908 16.333 12.3158Z" fill="#2F80ED"/>
<path d="M9 3.89746C6.23963 3.89746 4 6.07921 4 8.76855C4 11.4579 6.23963 13.6396 9 13.6396C11.7605 13.6396 14 11.4579 14 8.76855C14 6.07921 11.7605 3.89746 9 3.89746ZM9 11.9283C7.20921 11.9283 5.75662 10.5133 5.75662 8.76855C5.75662 7.02379 7.20921 5.6088 9 5.6088C10.7909 5.6088 12.2434 7.02379 12.2434 8.76855C12.2434 10.5133 10.7909 11.9283 9 11.9283Z" fill="white"/>
<path d="M9 3.89746C6.23963 3.89746 4 6.07921 4 8.76855C4 11.4579 6.23963 13.6396 9 13.6396C11.7605 13.6396 14 11.4579 14 8.76855C14 6.07921 11.7605 3.89746 9 3.89746ZM9 11.9283C7.20921 11.9283 5.75662 10.5133 5.75662 8.76855C5.75662 7.02379 7.20921 5.6088 9 5.6088C10.7909 5.6088 12.2434 7.02379 12.2434 8.76855C12.2434 10.5133 10.7909 11.9283 9 11.9283Z" fill="#2F80ED"/>
</svg>
