<svg width="50" height="60" viewBox="0 0 50 60" fill="none" xmlns="http://www.w3.org/2000/svg">
<path d="M37.5 15.4316C37.5 11.5423 36.183 7.81236 33.8388 5.06223C31.4946 2.3121 28.3152 0.76709 25 0.76709C21.6848 0.76709 18.5054 2.3121 16.1612 5.06223C13.817 7.81236 12.5 11.5423 12.5 15.4316H0V52.0929C0 54.0376 0.65848 55.9026 1.83058 57.2776C3.00268 58.6527 4.5924 59.4252 6.25 59.4252H43.75C45.4076 59.4252 46.9973 58.6527 48.1694 57.2776C49.3415 55.9026 50 54.0376 50 52.0929V15.4316H37.5ZM25 5.65527C27.2101 5.65527 29.3298 6.68527 30.8926 8.51869C32.4554 10.3521 33.3333 12.8388 33.3333 15.4316H16.6667C16.6667 12.8388 17.5446 10.3521 19.1074 8.51869C20.6702 6.68527 22.7899 5.65527 25 5.65527ZM45.8333 52.0929C45.8333 52.7411 45.6138 53.3628 45.2231 53.8212C44.8324 54.2795 44.3025 54.537 43.75 54.537H6.25C5.69747 54.537 5.16756 54.2795 4.77686 53.8212C4.38616 53.3628 4.16667 52.7411 4.16667 52.0929V20.3198H12.5V25.208H16.6667V20.3198H33.3333V25.208H37.5V20.3198H45.8333V52.0929Z" fill="#364A7E"/>
</svg>
