<svg width="24" height="24" viewBox="0 0 24 24" fill="none" xmlns="http://www.w3.org/2000/svg">
<path fill-rule="evenodd" clip-rule="evenodd" d="M10 20C10 21.6569 8.65685 23 7 23C5.34315 23 4 21.6569 4 20C4 18.3431 5.34315 17 7 17C8.65685 17 10 18.3431 10 20ZM8 20C8 20.5523 7.55228 21 7 21C6.44772 21 6 20.5523 6 20C6 19.4477 6.44772 19 7 19C7.55228 19 8 19.4477 8 20Z" fill="#12131A"/>
<path fill-rule="evenodd" clip-rule="evenodd" d="M20 20C20 21.6569 18.6569 23 17 23C15.3431 23 14 21.6569 14 20C14 18.3431 15.3431 17 17 17C18.6569 17 20 18.3431 20 20ZM18 20C18 20.5523 17.5523 21 17 21C16.4477 21 16 20.5523 16 20C16 19.4477 16.4477 19 17 19C17.5523 19 18 19.4477 18 20Z" fill="#12131A"/>
<path fill-rule="evenodd" clip-rule="evenodd" d="M2.10579 2.55276C2.35278 2.05878 2.95345 1.85856 3.44743 2.10555L4.45094 2.6073C5.38021 3.07193 6.00292 3.98429 6.09698 5.01898L6.14482 5.54524C6.16823 5.80278 6.38417 5.99997 6.64277 5.99997H19.8357C21.5812 5.99997 22.7894 7.74341 22.1765 9.37778L20.4232 14.0533C19.9841 15.2243 18.8648 16 17.6142 16H7.82665C6.27504 16 4.97944 14.8168 4.83897 13.2716L4.10519 5.20005C4.07384 4.85515 3.86627 4.55103 3.55651 4.39616L2.55301 3.8944C2.05903 3.64741 1.8588 3.04674 2.10579 2.55276ZM6.9155 7.99997C6.62148 7.99997 6.39093 8.25243 6.41755 8.54524L6.83076 13.0905C6.87758 13.6056 7.30944 14 7.82665 14H17.6142C18.0311 14 18.4042 13.7414 18.5505 13.3511L20.3039 8.67554C20.4265 8.34866 20.1848 7.99997 19.8357 7.99997H6.9155Z" fill="#12131A"/>
</svg>
