<svg width="50" height="50" viewBox="0 0 50 50" fill="none" xmlns="http://www.w3.org/2000/svg">
<path d="M37.5 12.5C37.5 9.18479 36.183 6.00537 33.8388 3.66116C31.4946 1.31696 28.3152 0 25 0C21.6848 0 18.5054 1.31696 16.1612 3.66116C13.817 6.00537 12.5 9.18479 12.5 12.5H0V43.75C0 45.4076 0.65848 46.9973 1.83058 48.1694C3.00268 49.3415 4.5924 50 6.25 50H43.75C45.4076 50 46.9973 49.3415 48.1694 48.1694C49.3415 46.9973 50 45.4076 50 43.75V12.5H37.5ZM25 4.16667C27.2101 4.16667 29.3298 5.04464 30.8926 6.60744C32.4554 8.17025 33.3333 10.2899 33.3333 12.5H16.6667C16.6667 10.2899 17.5446 8.17025 19.1074 6.60744C20.6702 5.04464 22.7899 4.16667 25 4.16667ZM45.8333 43.75C45.8333 44.3025 45.6138 44.8324 45.2231 45.2231C44.8324 45.6138 44.3025 45.8333 43.75 45.8333H6.25C5.69747 45.8333 5.16756 45.6138 4.77686 45.2231C4.38616 44.8324 4.16667 44.3025 4.16667 43.75V16.6667H12.5V20.8333H16.6667V16.6667H33.3333V20.8333H37.5V16.6667H45.8333V43.75Z" fill="#F47222"/>
</svg>
